<mxfile host="Electron" modified="2024-01-10T23:26:28.224Z" agent="Mozilla/5.0 (Windows NT 10.0; Win64; x64) AppleWebKit/537.36 (KHTML, like Gecko) draw.io/22.1.18 Chrome/120.0.6099.199 Electron/28.1.2 Safari/537.36" etag="-JVk-L2TGj-0Ge6ZKnpO" version="22.1.18" type="device" pages="2">
  <diagram name="UI Layout" id="mk524GMTnjtXlN_RWsVO">
    <mxGraphModel dx="2284" dy="844" grid="1" gridSize="10" guides="1" tooltips="1" connect="1" arrows="1" fold="1" page="1" pageScale="1" pageWidth="850" pageHeight="1100" math="0" shadow="0">
      <root>
        <mxCell id="0" />
        <mxCell id="1" parent="0" />
        <mxCell id="RuNWHJLg3xuYwg9Rf8eD-2" value="" style="rounded=0;whiteSpace=wrap;html=1;" parent="1" vertex="1">
          <mxGeometry x="25" y="10" width="800" height="600" as="geometry" />
        </mxCell>
        <mxCell id="RuNWHJLg3xuYwg9Rf8eD-3" value="Castle" style="rounded=0;whiteSpace=wrap;html=1;fillColor=#647687;fontColor=#ffffff;strokeColor=#314354;" parent="1" vertex="1">
          <mxGeometry x="40" y="500" width="770" height="40" as="geometry" />
        </mxCell>
        <mxCell id="RuNWHJLg3xuYwg9Rf8eD-4" value="Player" style="ellipse;whiteSpace=wrap;html=1;aspect=fixed;fillColor=#008a00;fontColor=#ffffff;strokeColor=#005700;" parent="1" vertex="1">
          <mxGeometry x="385" y="430" width="80" height="80" as="geometry" />
        </mxCell>
        <mxCell id="RuNWHJLg3xuYwg9Rf8eD-5" value="Health Bar" style="rounded=0;whiteSpace=wrap;html=1;fillColor=#e51400;fontColor=#ffffff;strokeColor=#B20000;" parent="1" vertex="1">
          <mxGeometry x="265" y="550" width="320" height="40" as="geometry" />
        </mxCell>
        <mxCell id="RuNWHJLg3xuYwg9Rf8eD-6" value="" style="rounded=1;whiteSpace=wrap;html=1;fillColor=#0055FF;fontColor=#ffffff;strokeColor=#001DBC;gradientColor=none;opacity=50;" parent="1" vertex="1">
          <mxGeometry x="225" y="165" width="400" height="290" as="geometry" />
        </mxCell>
        <mxCell id="RuNWHJLg3xuYwg9Rf8eD-7" value="" style="endArrow=classic;html=1;rounded=0;entryX=1;entryY=0.5;entryDx=0;entryDy=0;" parent="1" target="RuNWHJLg3xuYwg9Rf8eD-6" edge="1">
          <mxGeometry width="50" height="50" relative="1" as="geometry">
            <mxPoint x="840" y="280" as="sourcePoint" />
            <mxPoint x="670" y="260" as="targetPoint" />
          </mxGeometry>
        </mxCell>
        <mxCell id="RuNWHJLg3xuYwg9Rf8eD-8" value="Similar size to credits menu and all that" style="shape=note;size=20;whiteSpace=wrap;html=1;strokeColor=#3333FF;" parent="1" vertex="1">
          <mxGeometry x="840" y="230" width="100" height="100" as="geometry" />
        </mxCell>
        <mxCell id="RuNWHJLg3xuYwg9Rf8eD-9" value="&lt;font style=&quot;font-size: 30px;&quot;&gt;Paused&lt;/font&gt;" style="text;html=1;strokeColor=none;fillColor=none;align=center;verticalAlign=middle;whiteSpace=wrap;rounded=0;" parent="1" vertex="1">
          <mxGeometry x="368" y="180" width="115" height="40" as="geometry" />
        </mxCell>
        <mxCell id="RuNWHJLg3xuYwg9Rf8eD-12" value="" style="endArrow=classic;html=1;rounded=0;entryX=1.01;entryY=0.777;entryDx=0;entryDy=0;entryPerimeter=0;" parent="1" target="RuNWHJLg3xuYwg9Rf8eD-6" edge="1">
          <mxGeometry width="50" height="50" relative="1" as="geometry">
            <mxPoint x="870" y="470" as="sourcePoint" />
            <mxPoint x="900" y="460" as="targetPoint" />
          </mxGeometry>
        </mxCell>
        <mxCell id="RuNWHJLg3xuYwg9Rf8eD-13" value="Has to make sure input and anything clickable other than itself is disabled" style="shape=note;size=20;whiteSpace=wrap;html=1;strokeColor=#3333FF;" parent="1" vertex="1">
          <mxGeometry x="870" y="420" width="130" height="120" as="geometry" />
        </mxCell>
        <mxCell id="RuNWHJLg3xuYwg9Rf8eD-14" value="&lt;font style=&quot;font-size: 18px;&quot;&gt;Resume&lt;/font&gt;" style="rounded=0;whiteSpace=wrap;html=1;fillColor=#76608a;strokeColor=#432D57;fontColor=#ffffff;" parent="1" vertex="1">
          <mxGeometry x="368" y="400" width="115" height="40" as="geometry" />
        </mxCell>
        <mxCell id="RuNWHJLg3xuYwg9Rf8eD-16" value="&lt;font style=&quot;font-size: 18px;&quot;&gt;Settings&lt;/font&gt;" style="rounded=0;whiteSpace=wrap;html=1;fillColor=#76608a;strokeColor=#432D57;fontColor=#ffffff;" parent="1" vertex="1">
          <mxGeometry x="368" y="280" width="115" height="40" as="geometry" />
        </mxCell>
        <mxCell id="RuNWHJLg3xuYwg9Rf8eD-17" value="&lt;font style=&quot;font-size: 18px;&quot;&gt;Exit to Title&lt;/font&gt;" style="rounded=0;whiteSpace=wrap;html=1;fillColor=#76608a;strokeColor=#432D57;fontColor=#ffffff;" parent="1" vertex="1">
          <mxGeometry x="368" y="330" width="115" height="40" as="geometry" />
        </mxCell>
        <mxCell id="RuNWHJLg3xuYwg9Rf8eD-18" value="&lt;font style=&quot;font-size: 18px;&quot;&gt;Controls&lt;br&gt;&lt;/font&gt;" style="rounded=0;whiteSpace=wrap;html=1;fillColor=#76608a;strokeColor=#432D57;fontColor=#ffffff;" parent="1" vertex="1">
          <mxGeometry x="368" y="230" width="115" height="40" as="geometry" />
        </mxCell>
        <mxCell id="RuNWHJLg3xuYwg9Rf8eD-19" value="" style="endArrow=classic;html=1;rounded=0;" parent="1" edge="1">
          <mxGeometry width="50" height="50" relative="1" as="geometry">
            <mxPoint x="-30" y="380" as="sourcePoint" />
            <mxPoint x="420" y="380" as="targetPoint" />
          </mxGeometry>
        </mxCell>
        <mxCell id="RuNWHJLg3xuYwg9Rf8eD-20" value="This little space is necessary to discern the resume button from the rest" style="shape=note;size=20;whiteSpace=wrap;html=1;strokeColor=#3333FF;" parent="1" vertex="1">
          <mxGeometry x="-110" y="320" width="120" height="100" as="geometry" />
        </mxCell>
        <mxCell id="RuNWHJLg3xuYwg9Rf8eD-21" value="" style="endArrow=classic;html=1;rounded=0;" parent="1" edge="1">
          <mxGeometry width="50" height="50" relative="1" as="geometry">
            <mxPoint y="230" as="sourcePoint" />
            <mxPoint x="370" y="250" as="targetPoint" />
          </mxGeometry>
        </mxCell>
        <mxCell id="RuNWHJLg3xuYwg9Rf8eD-22" value="Opens the same menus from main menu" style="shape=note;size=20;whiteSpace=wrap;html=1;strokeColor=#3333FF;" parent="1" vertex="1">
          <mxGeometry x="-130" y="170" width="130" height="100" as="geometry" />
        </mxCell>
        <mxCell id="UMMZv90kDBcky1w4Ernp-1" value="" style="endArrow=classic;html=1;rounded=0;entryX=0;entryY=0.5;entryDx=0;entryDy=0;exitX=0;exitY=0;exitDx=130;exitDy=60;exitPerimeter=0;" edge="1" parent="1" source="RuNWHJLg3xuYwg9Rf8eD-22" target="RuNWHJLg3xuYwg9Rf8eD-16">
          <mxGeometry width="50" height="50" relative="1" as="geometry">
            <mxPoint x="10" y="240" as="sourcePoint" />
            <mxPoint x="380" y="260" as="targetPoint" />
          </mxGeometry>
        </mxCell>
      </root>
    </mxGraphModel>
  </diagram>
  <diagram id="KOc8rjSnse9eWLSINDNI" name="UML Pause">
    <mxGraphModel dx="683" dy="402" grid="1" gridSize="10" guides="1" tooltips="1" connect="1" arrows="1" fold="1" page="1" pageScale="1" pageWidth="850" pageHeight="1100" math="0" shadow="0">
      <root>
        <mxCell id="0" />
        <mxCell id="1" parent="0" />
        <mxCell id="nJV8bS-0HfxmQc4Yfxgi-1" value="PauseScreen" style="swimlane;fontStyle=1;align=center;verticalAlign=top;childLayout=stackLayout;horizontal=1;startSize=26;horizontalStack=0;resizeParent=1;resizeParentMax=0;resizeLast=0;collapsible=1;marginBottom=0;whiteSpace=wrap;html=1;" parent="1" vertex="1">
          <mxGeometry x="320" y="30" width="160" height="204" as="geometry" />
        </mxCell>
        <mxCell id="nJV8bS-0HfxmQc4Yfxgi-2" value="+ field: type" style="text;strokeColor=none;fillColor=none;align=left;verticalAlign=top;spacingLeft=4;spacingRight=4;overflow=hidden;rotatable=0;points=[[0,0.5],[1,0.5]];portConstraint=eastwest;whiteSpace=wrap;html=1;" parent="nJV8bS-0HfxmQc4Yfxgi-1" vertex="1">
          <mxGeometry y="26" width="160" height="26" as="geometry" />
        </mxCell>
        <mxCell id="nJV8bS-0HfxmQc4Yfxgi-3" value="" style="line;strokeWidth=1;fillColor=none;align=left;verticalAlign=middle;spacingTop=-1;spacingLeft=3;spacingRight=3;rotatable=0;labelPosition=right;points=[];portConstraint=eastwest;strokeColor=inherit;" parent="nJV8bS-0HfxmQc4Yfxgi-1" vertex="1">
          <mxGeometry y="52" width="160" height="8" as="geometry" />
        </mxCell>
        <mxCell id="nJV8bS-0HfxmQc4Yfxgi-4" value="Pause()&lt;br&gt;Resume()" style="text;strokeColor=none;fillColor=none;align=left;verticalAlign=top;spacingLeft=4;spacingRight=4;overflow=hidden;rotatable=0;points=[[0,0.5],[1,0.5]];portConstraint=eastwest;whiteSpace=wrap;html=1;" parent="nJV8bS-0HfxmQc4Yfxgi-1" vertex="1">
          <mxGeometry y="60" width="160" height="40" as="geometry" />
        </mxCell>
        <mxCell id="nJV8bS-0HfxmQc4Yfxgi-7" value="" style="line;strokeWidth=1;fillColor=none;align=left;verticalAlign=middle;spacingTop=-1;spacingLeft=3;spacingRight=3;rotatable=0;labelPosition=right;points=[];portConstraint=eastwest;strokeColor=inherit;" parent="nJV8bS-0HfxmQc4Yfxgi-1" vertex="1">
          <mxGeometry y="100" width="160" height="8" as="geometry" />
        </mxCell>
        <mxCell id="nJV8bS-0HfxmQc4Yfxgi-6" value="&lt;b&gt;Blueprint Implementation&lt;/b&gt;" style="text;strokeColor=none;fillColor=none;align=center;verticalAlign=top;spacingLeft=4;spacingRight=4;overflow=hidden;rotatable=0;points=[[0,0.5],[1,0.5]];portConstraint=eastwest;whiteSpace=wrap;html=1;" parent="nJV8bS-0HfxmQc4Yfxgi-1" vertex="1">
          <mxGeometry y="108" width="160" height="26" as="geometry" />
        </mxCell>
        <mxCell id="nJV8bS-0HfxmQc4Yfxgi-8" value="ControlsButton&lt;br&gt;SettingsButton&lt;br&gt;ExitToTitleButton&lt;br&gt;ResumeButton" style="text;strokeColor=none;fillColor=none;align=left;verticalAlign=top;spacingLeft=4;spacingRight=4;overflow=hidden;rotatable=0;points=[[0,0.5],[1,0.5]];portConstraint=eastwest;whiteSpace=wrap;html=1;" parent="nJV8bS-0HfxmQc4Yfxgi-1" vertex="1">
          <mxGeometry y="134" width="160" height="70" as="geometry" />
        </mxCell>
        <mxCell id="nJV8bS-0HfxmQc4Yfxgi-9" value="" style="endArrow=block;startArrow=block;endFill=1;startFill=1;html=1;rounded=0;exitX=0.999;exitY=0.308;exitDx=0;exitDy=0;exitPerimeter=0;entryX=0;entryY=0.5;entryDx=0;entryDy=0;" parent="1" source="nJV8bS-0HfxmQc4Yfxgi-4" edge="1" target="nJV8bS-0HfxmQc4Yfxgi-10">
          <mxGeometry width="160" relative="1" as="geometry">
            <mxPoint x="710" y="100" as="sourcePoint" />
            <mxPoint x="670" y="100" as="targetPoint" />
          </mxGeometry>
        </mxCell>
        <mxCell id="nJV8bS-0HfxmQc4Yfxgi-10" value="MainMenu" style="html=1;whiteSpace=wrap;" parent="1" vertex="1">
          <mxGeometry x="620" y="80" width="110" height="50" as="geometry" />
        </mxCell>
        <mxCell id="nJV8bS-0HfxmQc4Yfxgi-11" value="Part of" style="text;html=1;strokeColor=none;fillColor=none;align=center;verticalAlign=middle;whiteSpace=wrap;rounded=0;" parent="1" vertex="1">
          <mxGeometry x="520" y="74" width="60" height="30" as="geometry" />
        </mxCell>
        <mxCell id="QDQA13FOGzlGSCGnvv0_-1" value="" style="endArrow=classic;html=1;rounded=0;exitX=0;exitY=0;exitDx=100;exitDy=60;exitPerimeter=0;" edge="1" parent="1" source="QDQA13FOGzlGSCGnvv0_-2">
          <mxGeometry width="50" height="50" relative="1" as="geometry">
            <mxPoint x="230" y="110" as="sourcePoint" />
            <mxPoint x="320" y="100" as="targetPoint" />
          </mxGeometry>
        </mxCell>
        <mxCell id="QDQA13FOGzlGSCGnvv0_-2" value="Activated with the ESC button or Menu button on controller" style="shape=note;size=20;whiteSpace=wrap;html=1;strokeColor=#3333FF;" vertex="1" parent="1">
          <mxGeometry x="130" y="39" width="100" height="100" as="geometry" />
        </mxCell>
        <mxCell id="oBDb2cR9qz9SmkC5nOcM-1" value="" style="endArrow=classic;html=1;rounded=0;" edge="1" parent="1">
          <mxGeometry width="50" height="50" relative="1" as="geometry">
            <mxPoint x="240" y="180" as="sourcePoint" />
            <mxPoint x="320" y="120" as="targetPoint" />
          </mxGeometry>
        </mxCell>
        <mxCell id="oBDb2cR9qz9SmkC5nOcM-2" value="Also can be activated by the ESC button or Menu button" style="shape=note;size=20;whiteSpace=wrap;html=1;strokeColor=#3333FF;" vertex="1" parent="1">
          <mxGeometry x="140" y="149" width="100" height="100" as="geometry" />
        </mxCell>
      </root>
    </mxGraphModel>
  </diagram>
</mxfile>
